<svg xmlns="http://www.w3.org/2000/svg" width="18" height="18" viewBox="0 0 18 18">
  <g id="Group_202" data-name="Group 202" transform="translate(-4956 -7488)">
    <g id="baseline-business-24px" transform="translate(4956 7488)" opacity="0.5">
      <path id="Path_99" data-name="Path 99" d="M0,0H18V18H0Z" fill="none"/>
      <path id="Path_100" data-name="Path 100" d="M9,5.667V3H2V15H16V5.667Zm-4.2,8H3.4V12.333H4.8ZM4.8,11H3.4V9.667H4.8Zm0-2.667H3.4V7H4.8Zm0-2.667H3.4V4.333H4.8Zm2.8,8H6.2V12.333H7.6ZM7.6,11H6.2V9.667H7.6Zm0-2.667H6.2V7H7.6Zm0-2.667H6.2V4.333H7.6Zm7,8H9V12.333h1.4V11H9V9.667h1.4V8.333H9V7h5.6ZM13.2,8.333H11.8V9.667h1.4ZM13.2,11H11.8v1.333h1.4Z"/>
    </g>
  </g>
</svg>
