<svg xmlns="http://www.w3.org/2000/svg" xmlns:xlink="http://www.w3.org/1999/xlink" width="24" height="24" viewBox="0 0 24 24"><defs><style>.a{fill:none;}.b{clip-path:url(#a);}.c{fill:#fff;}</style><clipPath id="a"><rect class="a" width="24" height="24"/></clipPath></defs><g class="b"><rect class="a" width="24" height="24"/><g transform="translate(-11876 -10403.531)"><path class="c" d="M13,16H2a2,2,0,0,1-2-2L.01,2A2,2,0,0,1,2,0H18a2,2,0,0,1,2,2V7.5a3.124,3.124,0,0,0-3.692,5.035,8.2,8.2,0,0,0-1.087.345C13.385,13.62,13,14.661,13,15.405V16ZM2,2V4l8,5,8-5V2L10,7Z" transform="translate(11877 10407.532)"/><path class="c" d="M8.25,8.25A2.125,2.125,0,1,0,6.125,6.125,2.124,2.124,0,0,0,8.25,8.25Zm0,1.063c-1.418,0-4.25.712-4.25,2.125V12.5h8.5V11.438C12.5,10.024,9.668,9.313,8.25,9.313Z" transform="translate(11887 10411.5)"/></g></g></svg>