<svg xmlns="http://www.w3.org/2000/svg" width="24" height="24" viewBox="0 0 24 24">
  <g id="Group_375" data-name="Group 375" transform="translate(-4285 -8792)">
    <rect id="Rectangle_168" data-name="Rectangle 168" width="24" height="24" transform="translate(4285 8792)" fill="none"/>
    <path id="content-copy" d="M18.105,19.947H7.684V6.684H18.105m0-1.895H7.684A1.9,1.9,0,0,0,5.789,6.684V19.947a1.9,1.9,0,0,0,1.895,1.895H18.105A1.9,1.9,0,0,0,20,19.947V6.684a1.9,1.9,0,0,0-1.895-1.895M15.263,1H3.895A1.9,1.9,0,0,0,2,2.895V16.158H3.895V2.895H15.263Z" transform="translate(4286 8793)" fill="#f68933"/>
  </g>
</svg>
