<svg xmlns="http://www.w3.org/2000/svg" width="24" height="24" viewBox="0 0 24 24"><defs><style>.a{fill:none;}.b{fill:#f68933;}</style></defs><g transform="translate(-2820 -7617)"><g transform="translate(2820 7617)"><path class="a" d="M0,0H24V24H0Z"/><path class="a" d="M0,0H24V24H0Z"/><path class="b" d="M20,11H4V8H20m0,7H13V13h7m0,6H13V17h7m-9,2H4V13h7m9.33-8.33L18.67,3,17,4.67,15.33,3,13.67,4.67,12,3,10.33,4.67,8.67,3,7,4.67,5.33,3,3.67,4.67,2,3V19a2,2,0,0,0,2,2H20a2,2,0,0,0,2-2V3Z"/></g></g></svg>