<svg xmlns="http://www.w3.org/2000/svg" xmlns:xlink="http://www.w3.org/1999/xlink" width="24" height="24" viewBox="0 0 24 24"><defs><style>.a{fill:none;}.b{opacity:0.6;clip-path:url(#a);}</style><clipPath id="a"><rect class="a" width="24" height="24"/></clipPath></defs><g class="b"><rect class="a" width="24" height="24"/><path d="M3,6.58V18.67A3.342,3.342,0,0,0,6.33,22h6.09a3.289,3.289,0,0,0,2.37-1l6.54-6.64s-1.05-1.03-1.08-1.04a.985.985,0,0,0-.66-.25.966.966,0,0,0-.5.14c-.03.01-3.59,2.05-3.59,2.05V5.33a1.25,1.25,0,1,0-2.5,0v5.84h-.83V3.25a1.25,1.25,0,0,0-2.5,0v7.92H8.83V4.08a1.25,1.25,0,0,0-2.5,0v7.09H5.5V6.58a1.25,1.25,0,0,0-2.5,0Z"/></g></svg>