<svg xmlns="http://www.w3.org/2000/svg" xmlns:xlink="http://www.w3.org/1999/xlink" width="24" height="24" viewBox="0 0 24 24"><defs><style>.a,.d{fill:none;}.b{clip-path:url(#a);}.c{fill:#fff;}.d{stroke:#fff;stroke-linejoin:round;}</style><clipPath id="a"><rect class="a" width="24" height="24"/></clipPath></defs><g class="b"><rect class="a" width="24" height="24"/><g transform="translate(-10451 -11095.24)"><path class="c" d="M33-20.759H18a2,2,0,0,1-2-2v-5a2,2,0,0,1,2-2H33v9Zm-5.411-6.2v4.2h.947v-1.632H29.9v-.768H28.536v-1.03h1.482v-.771Zm-4.424,0v4.2h1.489a2.264,2.264,0,0,0,1.627-.586,2.08,2.08,0,0,0,.611-1.567c0-1.359-.753-2.048-2.238-2.048Zm-3.686,0v4.2h.946v-1.447h.452A1.813,1.813,0,0,0,22.1-24.6a1.29,1.29,0,0,0,.455-1.024c0-.889-.534-1.339-1.588-1.339Zm5.1,3.434h-.469V-26.19h.463a1.328,1.328,0,0,1,.974.344,1.277,1.277,0,0,1,.347.945,1.406,1.406,0,0,1-.35,1A1.27,1.27,0,0,1,24.581-23.527Zm-3.782-1.4h-.373v-1.31H20.8c.5,0,.756.218.756.647S21.3-24.925,20.8-24.925Z" transform="translate(10438 11133.76)"/><path class="d" d="M10523.063,11103l-4.821-4.759h-9.491v18.071h14.313Z" transform="translate(-52)"/><path class="c" d="M10518.375,11098.24v4.915h5.563Z" transform="translate(-52.344)"/></g></g></svg>