<svg xmlns="http://www.w3.org/2000/svg" xmlns:xlink="http://www.w3.org/1999/xlink" width="24" height="24" viewBox="0 0 24 24">
  <defs>
    <clipPath id="clip-path">
      <rect width="24" height="24" fill="none"/>
    </clipPath>
    <clipPath id="clip-notification_icon">
      <rect width="24" height="24"/>
    </clipPath>
  </defs>
  <g id="notification_icon" data-name="notification icon" clip-path="url(#clip-notification_icon)">
    <rect width="24" height="24" fill="#ffffff00"/>
    <g id="Symbol_102_2" data-name="Symbol 102 – 2" clip-path="url(#clip-path)">
      <g id="baseline-notification_important-24px">
        <path id="Path_126" data-name="Path 126" d="M18,16V11c0-3.07-1.64-5.64-4.5-6.32V4a1.5,1.5,0,0,0-3,0v.68C7.63,5.36,6,7.92,6,11v5L4,18v1H20V18Zm-5,0H11V14h2Zm0-4H11V8h2ZM12,22a2.006,2.006,0,0,0,2-2H10A2,2,0,0,0,12,22Z" fill="#f68933"/>
        <path id="Path_127" data-name="Path 127" d="M0,0H24V24H0Z" fill="none"/>
      </g>
    </g>
  </g>
</svg>
