<svg xmlns="http://www.w3.org/2000/svg" width="24" height="24" viewBox="0 0 24 24">
  <g id="Group_260" data-name="Group 260" transform="translate(-4974 -8211)" opacity="0.5">
    <path id="tag" d="M5.15,6.5A1.35,1.35,0,1,1,6.5,5.15,1.35,1.35,0,0,1,5.15,6.5m14.319,4.122-8.1-8.1A1.789,1.789,0,0,0,10.1,2H3.8A1.794,1.794,0,0,0,2,3.8v6.3a1.76,1.76,0,0,0,.531,1.269l8.091,8.1A1.834,1.834,0,0,0,11.9,20a1.8,1.8,0,0,0,1.269-.531l6.3-6.3A1.76,1.76,0,0,0,20,11.9,1.8,1.8,0,0,0,19.469,10.622Z" transform="translate(4975 8212)"/>
    <path id="Path_75" data-name="Path 75" d="M0,0H24V24H0Z" transform="translate(4974 8211)" fill="none"/>
  </g>
</svg>
